<svg xmlns="http://www.w3.org/2000/svg" width="32" height="32" viewBox="0 0 32 32">
    <g data-name="그룹 1435">
        <path data-name="사각형 1575" style="fill:none;opacity:.43" d="M0 0h32v32H0z"/>
        <g data-name="그룹 1439">
            <g data-name="232, Call, Phone, Telephone, Mobile">
                <path data-name="패스 456" d="M925.673 609.824a2.035 2.035 0 0 1-2.862 0l-4.036-4.041a2.043 2.043 0 0 1 0-2.866l1.394-1.4-4.369-4.367-.037.037a6.82 6.82 0 0 0-2.2 3.6c-.367 3.122.954 5.841 4.806 9.661 4.256 4.262 7.669 4.7 8.953 4.7a4.217 4.217 0 0 0 .513-.036h.037a6.989 6.989 0 0 0 3.6-2.205l.036-.036-4.439-4.445z" style="fill:#fff" transform="translate(-906.506 -590.15)"/>
            </g>
        </g>
    </g>
</svg>
