<svg xmlns="http://www.w3.org/2000/svg" width="32" height="32" viewBox="0 0 32 32">
    <g data-name="그룹 1433">
        <path data-name="사각형 1575" style="fill:none;opacity:.43" d="M0 0h32v32H0z"/>
        <path data-name="패스 455" d="M1388.016 1060.635a7.006 7.006 0 0 0-2.339-2.923 9.9 9.9 0 0 0-5.166-1.93 10.869 10.869 0 0 0-2.994.134 9.856 9.856 0 0 0-3.717 1.474 7.556 7.556 0 0 0-2.56 2.755 5.937 5.937 0 0 0-.653 3.757 6.308 6.308 0 0 0 1.4 3.072 8.3 8.3 0 0 0 2.669 2.135c.068.036.076.068.056.135q-.326 1.155-.645 2.31c-.085.305-.176.609-.24.919a.2.2 0 0 0 .239.258.419.419 0 0 0 .156-.055c.136-.078.274-.155.406-.241 1.088-.7 2.14-1.464 3.193-2.22a.273.273 0 0 1 .213-.054 10.47 10.47 0 0 0 1.6.1 10.8 10.8 0 0 0 1.752-.157 10 10 0 0 0 3.443-1.245 7.69 7.69 0 0 0 2.758-2.659 5.913 5.913 0 0 0 .429-5.565z" transform="translate(-1363.516 -1048.734)" style="fill:#fff"/>
    </g>
</svg>
