<svg xmlns="http://www.w3.org/2000/svg" width="20" height="20" viewBox="0 0 20 20">
    <g data-name="그룹 1414">
        <path data-name="사각형 1364" style="fill:none" d="M0 0h20v20H0z"/>
        <path data-name="패스 441" d="M424.463 383.865c.4-.009.433.042.951-.434.63-.579 1.437-1.525 1.437-1.525a.944.944 0 0 0-.315-1.539c-.927-.455-3.1-1.47-3.1-1.47a.816.816 0 0 0-.784.017l-1.027.757c-.246.161-.475.262-.628.19a10.283 10.283 0 0 1-4.84-4.8c-.072-.154.02-.388.172-.641l.723-1.06a.85.85 0 0 0 0-.8s-1.049-2.176-1.518-3.107a.916.916 0 0 0-1.523-.284s-.915.84-1.47 1.491c-.458.536-.407.565-.407.975 0 6.674 5.713 11.829 12.3 12.226z" transform="translate(-409.137 -365.865)" style="fill:#fff;fill-rule:evenodd"/>
    </g>
</svg>
