<svg xmlns="http://www.w3.org/2000/svg" width="74" height="12" viewBox="0 0 74 12">
  <defs>
    <style>
      .cls-1 {
        fill: #878e9c;
      }
    </style>
  </defs>
  <g id="logo" transform="translate(-271.915 -205.971)">
    <g id="그룹_1469" data-name="그룹 1469">
      <g id="그룹_1468" data-name="그룹 1468">
        <g id="그룹_1462" data-name="그룹 1462">
          <g id="그룹_1461" data-name="그룹 1461">
            <path id="패스_475" data-name="패스 475" class="cls-1" d="M322.552,210.785h1.462q1.308,0,1.31-2.222v-2.592H323.74v1.039h-1.148v-1.039h-1.583v3.383C321.009,210.308,321.525,210.785,322.552,210.785Zm.04-2.483h1.148v.521c0,.446-.133.668-.4.668h-.274a.422.422,0,0,1-.477-.477Z"/>
          </g>
        </g>
        <g id="그룹_1463" data-name="그룹 1463">
          <path id="패스_476" data-name="패스 476" class="cls-1" d="M326.524,211.891c0-.319-.114-.477-.341-.477H314.722c-.228,0-.34.158-.34.477,0,.632.2.963.6.992v0h10.951v0Q326.524,212.84,326.524,211.891Z"/>
        </g>
        <g id="그룹_1465" data-name="그룹 1465">
          <g id="그룹_1464" data-name="그룹 1464">
            <path id="패스_477" data-name="패스 477" class="cls-1" d="M317.693,210.785h1.46q1.309,0,1.311-2.154v-2.66H318.88v1.039h-1.145v-1.039h-1.584v3.316A1.343,1.343,0,0,0,317.693,210.785Zm.042-2.483h1.145v.521c0,.446-.131.668-.4.668h-.272a.422.422,0,0,1-.477-.477Z"/>
          </g>
        </g>
        <g id="그룹_1467" data-name="그룹 1467">
          <g id="그룹_1466" data-name="그룹 1466">
            <path id="패스_478" data-name="패스 478" class="cls-1" d="M324.068,213.676h-6.791a.671.671,0,0,0-.764.752v1.117q0,2.427,1.31,2.426h5.7q1.308,0,1.311-2.426v-1.117A.671.671,0,0,0,324.068,213.676Zm-1.053,2.129c0,.443-.131.668-.4.668h-3.9c-.264,0-.4-.225-.4-.668v-.627h4.687Z"/>
          </g>
        </g>
      </g>
    </g>
    <g id="그룹_1472" data-name="그룹 1472">
      <path id="패스_479" data-name="패스 479" class="cls-1" d="M274.162,207.5a1.615,1.615,0,0,1,.618.118,1.971,1.971,0,0,1,.529.324,2.656,2.656,0,0,1,.43.475,2.847,2.847,0,0,1,.316.581h1.4v-1.828h.976v8.379a4,4,0,0,1-.114,1.087.454.454,0,0,1-.454.385h-.137c-.18,0-.271-.083-.271-.259v-4.037h-1.315a3.693,3.693,0,0,1-.315.682,2.226,2.226,0,0,1-.435.545,2.18,2.18,0,0,1-.566.356,1.712,1.712,0,0,1-.659.132,1.645,1.645,0,0,1-.931-.274,2.4,2.4,0,0,1-.7-.747,3.429,3.429,0,0,1-.46-1.1,5.746,5.746,0,0,1-.153-1.348,5.5,5.5,0,0,1,.16-1.358,3.7,3.7,0,0,1,.453-1.093,2.4,2.4,0,0,1,.71-.735A1.721,1.721,0,0,1,274.162,207.5Zm0,6.008a.722.722,0,0,0,.5-.208,1.912,1.912,0,0,0,.4-.563,3.644,3.644,0,0,0,.267-.817,4.87,4.87,0,0,0,.1-.974,4.65,4.65,0,0,0-.1-1,3.485,3.485,0,0,0-.272-.8,1.687,1.687,0,0,0-.4-.539.73.73,0,0,0-.482-.2.773.773,0,0,0-.5.191,1.522,1.522,0,0,0-.391.521,3.389,3.389,0,0,0-.268.8,4.765,4.765,0,0,0-.1.978,5.536,5.536,0,0,0,.086,1,3.432,3.432,0,0,0,.243.826,1.6,1.6,0,0,0,.4.575A.788.788,0,0,0,274.162,213.509Zm2.248-2.537c0,.15-.007.3-.013.457s-.023.3-.045.449h1.1v-2.04H276.3a3.911,3.911,0,0,1,.09.553C276.4,210.581,276.41,210.774,276.41,210.972Zm4.082,5.213c0,.687-.19,1.032-.566,1.032h-.138c-.181,0-.27-.088-.27-.26v-9.786h.974Z"/>
      <g id="그룹_1471" data-name="그룹 1471">
        <path id="패스_480" data-name="패스 480" class="cls-1" d="M291.4,211.9h-9.223v.826h9.054c.243,0,.362-.181.362-.554C291.59,211.992,291.527,211.9,291.4,211.9Z"/>
        <g id="그룹_1470" data-name="그룹 1470">
          <path id="패스_481" data-name="패스 481" class="cls-1" d="M288.078,211.014H289.8c.458,0,.691-.445.691-1.336v-2.439h-.909V208.3h-1.427v-1.057h-.9V210.2A.719.719,0,0,0,288.078,211.014Zm.081-1.949h1.427v.761c0,.271-.072.408-.213.408h-.955a.23.23,0,0,1-.259-.262Z"/>
          <path id="패스_482" data-name="패스 482" class="cls-1" d="M284.085,211.014h1.724q.691,0,.692-1.314v-2.461h-.9V208.3h-1.429v-1.057h-.908v2.937A.731.731,0,0,0,284.085,211.014Zm.091-1.949h1.429v.761c0,.271-.068.408-.205.408h-.953a.237.237,0,0,1-.271-.262Z"/>
        </g>
        <path id="패스_483" data-name="패스 483" class="cls-1" d="M289.72,213.76h-5.675a.37.37,0,0,0-.42.418v1.541c0,.921.242,1.384.725,1.384h5.064c.481,0,.725-.463.725-1.384v-1.541A.371.371,0,0,0,289.72,213.76Zm-.568,2.109c0,.27-.077.4-.227.4h-4.086q-.227,0-.226-.4V214.6h4.539Z"/>
      </g>
      <path id="패스_484" data-name="패스 484" class="cls-1" d="M298.5,216.219c0,.687-.194,1.032-.588,1.032h-.172a.236.236,0,0,1-.271-.26v-3.3h-4.2v-.861H302.5c.135,0,.2.1.2.283,0,.384-.126.578-.373.578H298.5Zm-3.89-8.765h6.649c.136,0,.2.092.2.273,0,.378-.122.569-.373.569H298.5a1.8,1.8,0,0,0,.267.69,2.776,2.776,0,0,0,.607.667,4.308,4.308,0,0,0,.915.6,5.806,5.806,0,0,0,1.221.442.256.256,0,0,1,.179.261.565.565,0,0,1-.13.4.353.353,0,0,1-.244.15.165.165,0,0,1-.079-.013,8.321,8.321,0,0,1-1.974-.781,3.626,3.626,0,0,1-1.27-1.1,4.229,4.229,0,0,1-1.289,1.1,7.731,7.731,0,0,1-1.958.781.241.241,0,0,1-.09.013.371.371,0,0,1-.249-.15.549.549,0,0,1-.136-.4.266.266,0,0,1,.2-.273,6.547,6.547,0,0,0,1.164-.4,4.472,4.472,0,0,0,.968-.605,2.393,2.393,0,0,0,.636-.708,2.034,2.034,0,0,0,.227-.674h-2.859Z"/>
      <path id="패스_485" data-name="패스 485" class="cls-1" d="M304.381,214.189h6.389c.139,0,.2.092.2.273,0,.369-.126.553-.374.553h-6.219Zm3.065-6.791a2.793,2.793,0,0,1,1.073.2,2.444,2.444,0,0,1,.812.531,2.368,2.368,0,0,1,.5.79,2.593,2.593,0,0,1,.176.958,2.638,2.638,0,0,1-.176.962,2.36,2.36,0,0,1-.5.795,2.527,2.527,0,0,1-.812.539,3.047,3.047,0,0,1-2.145,0,2.351,2.351,0,0,1-1.31-1.334,2.54,2.54,0,0,1-.182-.962,2.5,2.5,0,0,1,.182-.958,2.448,2.448,0,0,1,.509-.79,2.338,2.338,0,0,1,.8-.531A2.773,2.773,0,0,1,307.446,207.4Zm0,4.114a1.482,1.482,0,0,0,.607-.127,1.509,1.509,0,0,0,.495-.358,1.822,1.822,0,0,0,.327-.527,1.677,1.677,0,0,0,.125-.642,1.625,1.625,0,0,0-.125-.633,1.8,1.8,0,0,0-.327-.521,1.574,1.574,0,0,0-.495-.348,1.5,1.5,0,0,0-.607-.129,1.537,1.537,0,0,0-.636.129,1.618,1.618,0,0,0-.489.348,1.549,1.549,0,0,0-.327.521,1.736,1.736,0,0,0-.115.633,1.793,1.793,0,0,0,.115.642,1.643,1.643,0,0,0,.318.527,1.493,1.493,0,0,0,.486.358A1.558,1.558,0,0,0,307.446,211.512Zm5.015,4.673c0,.687-.2,1.032-.589,1.032h-.136a.231.231,0,0,1-.262-.26v-9.786h.987Z"/>
    </g>
    <g id="그룹_1473" data-name="그룹 1473">
      <path id="패스_486" data-name="패스 486" class="cls-1" d="M328.34,214.213h6.41c.137,0,.2.092.2.274q0,.557-.376.557H328.34Zm3.074-6.814a2.84,2.84,0,0,1,1.076.193,2.452,2.452,0,0,1,.814.535,2.383,2.383,0,0,1,.507.791,2.6,2.6,0,0,1,.176.961,2.643,2.643,0,0,1-.176.967,2.354,2.354,0,0,1-.507.8,2.514,2.514,0,0,1-.814.541,3.008,3.008,0,0,1-2.152,0,2.372,2.372,0,0,1-1.315-1.337,2.586,2.586,0,0,1-.182-.967,2.544,2.544,0,0,1,.182-.961,2.444,2.444,0,0,1,.512-.791,2.346,2.346,0,0,1,.8-.535A2.84,2.84,0,0,1,331.414,207.4Zm0,4.13a1.5,1.5,0,0,0,1.105-.489,1.876,1.876,0,0,0,.33-.529,1.671,1.671,0,0,0,.125-.643,1.623,1.623,0,0,0-.125-.637,1.878,1.878,0,0,0-.33-.524,1.569,1.569,0,0,0-.5-.347,1.466,1.466,0,0,0-.609-.131,1.508,1.508,0,0,0-.637.131,1.563,1.563,0,0,0-.82.871,1.753,1.753,0,0,0-.114.637,1.806,1.806,0,0,0,.114.643,1.665,1.665,0,0,0,.319.529,1.481,1.481,0,0,0,.489.358A1.541,1.541,0,0,0,331.414,211.529Zm5.033,4.687q0,1.035-.592,1.035h-.137a.231.231,0,0,1-.262-.261v-9.819h.991Z"/>
      <path id="패스_487" data-name="패스 487" class="cls-1" d="M337.649,211.972h6.342c.136,0,.205.092.205.273,0,.372-.107.558-.319.558h-2.664v.728q0,.694-.456.694h-.25c-.145,0-.232-.019-.262-.057a.44.44,0,0,1-.046-.25V212.8h-2.55Zm3.028-4.767a3.557,3.557,0,0,1,1.065.171,2.675,2.675,0,0,1,.8.421,1.8,1.8,0,0,1,.672,1.422,1.861,1.861,0,0,1-.661,1.445,2.588,2.588,0,0,1-.8.438,3.469,3.469,0,0,1-1.077.177,3.519,3.519,0,0,1-1.053-.171,2.479,2.479,0,0,1-.8-.433,1.826,1.826,0,0,1-.518-.637,1.867,1.867,0,0,1,0-1.587,1.819,1.819,0,0,1,.518-.643,2.5,2.5,0,0,1,.8-.432A3.519,3.519,0,0,1,340.677,207.205Zm-.011,3.232a2.032,2.032,0,0,0,.615-.091,1.73,1.73,0,0,0,.5-.251,1.242,1.242,0,0,0,.33-.387.989.989,0,0,0,.125-.489.907.907,0,0,0-.125-.466,1.31,1.31,0,0,0-.33-.376,1.729,1.729,0,0,0-.5-.25,2.032,2.032,0,0,0-.615-.091,1.784,1.784,0,0,0-1.127.336,1.029,1.029,0,0,0-.433.847,1.064,1.064,0,0,0,.433.876A1.763,1.763,0,0,0,340.666,210.437Zm-1.344,4.016h.991v1.558a.241.241,0,0,0,.273.273h5.124c.137,0,.205.087.205.262q0,.568-.364.569h-4.987a4.406,4.406,0,0,1-.53-.029,1.219,1.219,0,0,1-.393-.108.58.58,0,0,1-.239-.256,1.017,1.017,0,0,1-.08-.438Zm4.122-4.2h1.31v-3.084h1V213.1a3.821,3.821,0,0,1-.114,1.058.467.467,0,0,1-.478.375h-.137q-.273,0-.273-.261V211.1h-1.31Z"/>
    </g>
  </g>
</svg>
