<svg width="82" height="12" viewBox="0 0 82 12" fill="none" xmlns="http://www.w3.org/2000/svg">
    <path d="M.317 2.94c.213-.636.515-1.123.904-1.465.389-.342.843-.513 1.362-.513.519 0 .957.16 1.343.483.385.323.69.783.911 1.376h1.744V.231h1.205v11.157H6.581V7.532H4.837c-.217.597-.522 1.061-.908 1.388-.389.327-.835.487-1.342.483-.52 0-.973-.171-1.362-.513-.39-.342-.69-.833-.905-1.472C.107 6.78 0 6.03 0 5.171c0-.86.107-1.597.32-2.232H.317zM1.33 6.797c.111.457.275.803.489 1.038a.98.98 0 0 0 .763.354c.297 0 .553-.114.774-.353.218-.24.386-.586.504-1.039.118-.452.175-.996.175-1.627s-.06-1.167-.179-1.62c-.118-.452-.286-.798-.504-1.038-.217-.24-.473-.357-.766-.357-.294 0-.55.122-.763.357-.214.24-.378.586-.489 1.038-.11.453-.168.993-.164 1.624 0 .631.05 1.171.164 1.627l-.004-.004zm3.873-1.627c0 .441-.035.878-.1 1.308h1.477V3.856H5.1c.068.422.103.859.103 1.315zm4.994 6.806H8.973V0h1.224v11.977zM11.464 5.897h10.953v1.03H11.464v-1.03zm2.17-4.327h1.676V.285h1.201v4.59h-4.078V.285h1.206V1.57h-.004zm-.865 6.441h8.305v3.814H12.77V8.011zm2.54-4.167V2.555h-1.674v1.29h1.675zm4.514 6.95V9.024h-5.799v1.772h5.799zM17.366.286h1.213V1.57h1.656V.285h1.213v4.59h-4.082V.285zm2.869 3.56v-1.29h-1.656v1.29h1.656zM34.019 7.783h-4.88v4.187h-1.251V7.783h-4.822V6.75h10.953v1.034zm-8.29-3.555c.629-.308 1.133-.68 1.506-1.122.374-.44.573-.9.584-1.384h-3.742V.715h8.912v1.011H29.26c.012.483.203.943.573 1.384.373.441.873.814 1.506 1.122.63.308 1.32.51 2.072.612l-.47 1.004a7.95 7.95 0 0 1-1.853-.521 6.071 6.071 0 0 1-1.53-.909 4.058 4.058 0 0 1-1.023-1.213c-.24.449-.58.852-1.018 1.213a6.132 6.132 0 0 1-1.522.909 8.067 8.067 0 0 1-1.84.52l-.48-1.003a6.737 6.737 0 0 0 2.053-.612v-.004zM35.136 8.365c1.378 0 2.686-.027 3.926-.08a36.436 36.436 0 0 0 3.514-.315l.099.927c-.84.156-1.713.278-2.617.354-.904.08-1.748.13-2.537.148-.79.02-1.667.027-2.64.027l-.157-1.057h.412v-.004zm5.124-7.152c.496.24.885.578 1.163 1.011.279.434.42.928.424 1.483 0 .555-.145 1.05-.424 1.483a2.795 2.795 0 0 1-1.163 1.012c-.496.24-1.057.36-1.682.36a3.85 3.85 0 0 1-1.687-.36 2.805 2.805 0 0 1-1.167-1.012 2.65 2.65 0 0 1-.416-1.483c0-.551.137-1.042.416-1.475a2.865 2.865 0 0 1 1.167-1.015c.5-.244 1.06-.365 1.687-.365.625 0 1.186.121 1.682.36zm-3.445 3.41c.172.267.412.472.721.617a2.43 2.43 0 0 0 1.041.216 2.43 2.43 0 0 0 1.042-.216c.309-.145.55-.35.725-.616.175-.267.263-.575.263-.92 0-.347-.088-.655-.263-.917a1.744 1.744 0 0 0-.725-.616 2.376 2.376 0 0 0-1.041-.22c-.386 0-.733.072-1.042.22-.309.148-.55.354-.721.616a1.64 1.64 0 0 0-.256.916c0 .346.08.654.256.92zM43.327 0h1.27v12h-1.27V0zM60.59 8.365c1.377 0 2.686-.027 3.926-.08a36.431 36.431 0 0 0 3.513-.315l.1.927c-.84.156-1.713.278-2.617.354-.904.08-1.748.13-2.537.148-.79.02-1.668.027-2.64.027l-.157-1.057h.412v-.004zm5.124-7.152c.496.24.885.578 1.163 1.011.279.434.42.928.424 1.483 0 .555-.145 1.05-.424 1.483a2.794 2.794 0 0 1-1.163 1.012c-.496.24-1.057.36-1.683.36a3.85 3.85 0 0 1-1.686-.36 2.806 2.806 0 0 1-1.167-1.012 2.651 2.651 0 0 1-.416-1.483c0-.551.137-1.042.416-1.475a2.865 2.865 0 0 1 1.167-1.015c.5-.244 1.06-.365 1.686-.365.626 0 1.187.121 1.683.36zm-3.445 3.41c.172.267.412.472.72.617a2.43 2.43 0 0 0 1.042.216 2.43 2.43 0 0 0 1.042-.216c.309-.145.55-.35.725-.616.175-.267.263-.575.263-.92 0-.347-.088-.655-.263-.917a1.716 1.716 0 0 0-.725-.616 2.376 2.376 0 0 0-1.042-.22c-.385 0-.732.072-1.041.22-.31.148-.55.354-.721.616a1.64 1.64 0 0 0-.256.916c0 .346.08.654.256.92zM68.78 0h1.27v12h-1.27V0zM75.892 5.4a40.736 40.736 0 0 0 3.544-.279l.084.917a32.56 32.56 0 0 1-3.174.346v2.338h-1.27v-2.27c-.824.03-1.763.046-2.808.046h-.454l-.16-1.02a161.5 161.5 0 0 0 4.238-.079zm-2.918-3.925c.252-.32.603-.566 1.057-.741.453-.175.972-.266 1.564-.266.591 0 1.095.087 1.545.266.45.175.8.422 1.057.741.251.32.381.685.385 1.103 0 .418-.13.787-.382 1.102-.251.316-.602.56-1.053.73-.45.172-.965.255-1.549.255-.583 0-1.114-.083-1.567-.255-.454-.17-.805-.414-1.057-.726a1.74 1.74 0 0 1-.374-1.106c0-.422.126-.783.378-1.103h-.004zm.347 6.73h1.27v2.487h7.41v1.038h-8.68V8.205zm.706-5.019c.148.175.358.308.63.403.27.095.583.14.934.14.35 0 .645-.045.912-.14a1.45 1.45 0 0 0 .625-.403.927.927 0 0 0 0-1.228 1.47 1.47 0 0 0-.63-.407 2.694 2.694 0 0 0-.907-.14c-.34 0-.668.045-.935.14-.267.095-.48.228-.63.407a.92.92 0 0 0-.22.616.91.91 0 0 0 .22.612zm7.687 5.909h-1.282V7.947h-2.419v-.898h2.42V.011h1.281v9.084zM55.524 11.882h-5.002c-.938 0-1.705-.76-1.705-1.7V8.156c0-.354.29-.643.645-.643h7.122c.355 0 .645.29.645.643v2.026c0 .936-.763 1.7-1.705 1.7zm-5.418-3.167v1.547c0 .228.187.415.416.415h5.002a.416.416 0 0 0 .416-.415V8.715h-5.834zM51.464.175v1.102H49.69V.175h-1.144v3.357c0 .476.389.863.866.863h2.327c.48 0 .866-.387.866-.863V.175h-1.144.003zm0 3.08H49.69v-.943h1.774v.943zM56.355.175v1.102h-1.774V.175h-1.144v3.357c0 .476.389.863.866.863h2.327a.866.866 0 0 0 .866-.863V.175H56.35h.004zm0 3.08h-1.774v-.943h1.774v.943zM58.782 5.369H47.264v1.175h11.518V5.369z" fill="#878E9C"/>
</svg>
