<svg width="60" height="12" viewBox="0 0 60 12" fill="none" xmlns="http://www.w3.org/2000/svg">
    <g clip-path="url(#yszt3ipqma)" fill="#878E9C">
        <path d="M14.227 4.833h8.88c.16 0 .233.107.233.327 0 .433-.147.647-.44.647h-8.673v-.974zM21.98 9.86c.16 0 .233.093.233.287 0 .446-.146.666-.44.666h-5.226c-.374 0-.634-.1-.78-.306-.147-.207-.227-.5-.227-.887V8.253h5.1c.12 0 .18-.093.18-.286v-.394h-5.28V6.62h5.973c.334 0 .507.167.507.5v.32c0 .46-.033.793-.093 1.013-.067.214-.127.36-.18.44a.546.546 0 0 1-.207.187.631.631 0 0 1-.247.053c-.093.007-.186.014-.28.014H16.74v.48c0 .153.073.226.227.226h5.013v.007zm-1.453-5.427c.126-.413.226-.8.286-1.16.067-.36.094-.7.094-1.026h-5.354V1.24h6.06c.334 0 .507.167.507.5v.46c0 .573-.14 1.213-.42 1.913a.469.469 0 0 1-.473.32h-.707.007zM28.707 7.033v1.32h3.713c.16 0 .233.114.233.34 0 .467-.146.7-.44.7h-8.666v-1.04H27.5v-1.32H28.707zm-3.78-3.486h4.993c.113 0 .173-.1.173-.294v-.82h-5.16V1.44h5.86c.334 0 .507.167.507.493v1.08c0 1.02-.26 1.534-.773 1.534h-4.4v.926c0 .154.08.227.233.227h4.907c.146 0 .226.1.226.307 0 .46-.146.686-.44.686h-5.106c-.674 0-1.007-.333-1.007-.993V3.547h-.013zM34.867 1.5v1.213H37V1.5h1.2v2.687c0 1.146-.287 1.713-.867 1.713h-2.646c-.674 0-1.007-.333-1.007-1.007V1.5h1.187zm1.873 3.427c.173 0 .26-.18.26-.534v-.686h-2.133v.906c0 .214.113.32.333.32h1.54v-.006zm-1.713 3.34h4.766c.114 0 .174-.1.174-.307v-.38h-4.94v-.94h5.633c.333 0 .507.167.507.5v.48c0 1.027-.26 1.54-.774 1.54h-4.18v.48c0 .153.08.227.234.227h4.68c.146 0 .226.1.226.306 0 .42-.146.634-.44.634h-4.886c-.674 0-1.007-.334-1.007-1.007V8.26l.007.007zm3.593-5.32h1.34V1.12h1.2v3.773c0 .834-.233 1.247-.707 1.247h-.173c-.213 0-.32-.107-.32-.32V3.953h-1.34V2.947zM42.713 7.82h5.807c.16 0 .233.113.233.34 0 .447-.147.667-.44.667h-5.6V7.82zm2.893-6.413c.387 0 .734.06 1.04.186.307.127.567.294.78.514.207.22.367.473.48.766.114.294.174.6.174.927 0 .327-.06.64-.173.927A2.21 2.21 0 0 1 46.647 6a2.703 2.703 0 0 1-1.04.193c-.387 0-.734-.066-1.034-.193-.306-.127-.56-.3-.773-.52a2.13 2.13 0 0 1-.487-.753 2.538 2.538 0 0 1-.166-.927c0-.327.053-.64.166-.927.113-.293.273-.546.487-.766.213-.22.473-.387.773-.514.3-.126.647-.186 1.033-.186zm0 3.76a1.142 1.142 0 0 0 .9-.414c.114-.126.207-.273.274-.44a1.49 1.49 0 0 0 0-1.073 1.485 1.485 0 0 0-.273-.44 1.244 1.244 0 0 0-.4-.293 1.142 1.142 0 0 0-.5-.107 1.17 1.17 0 0 0-.907.4 1.277 1.277 0 0 0-.267.44 1.428 1.428 0 0 0-.093.533c0 .187.033.367.093.54.06.174.154.32.267.44.106.134.24.234.393.307.153.073.327.107.52.107h-.007zm4.827 4.48c0 .82-.233 1.233-.706 1.233h-.174c-.213 0-.32-.107-.32-.32V1.133h1.2v8.514zM52.02 5.713h5.753c.16 0 .233.107.233.327 0 .44-.12.653-.366.653h-2.114v.567c0 .387-.16.58-.473.58h-.54c-.06 0-.12 0-.173-.013a1.627 1.627 0 0 1-.014-.18v-.954h-2.313v-.986l.007.006zM54.866 1.2c.38.007.72.06 1.02.167.3.1.56.24.774.413.207.173.367.38.473.62.107.24.167.493.167.767 0 .273-.053.52-.167.753a1.83 1.83 0 0 1-.473.613c-.213.18-.473.327-.773.427-.3.1-.64.153-1.02.167-.38-.007-.72-.06-1.02-.167a2.327 2.327 0 0 1-.76-.427 1.852 1.852 0 0 1-.48-.613 1.712 1.712 0 0 1-.174-.753 1.811 1.811 0 0 1 .653-1.387c.207-.173.46-.313.76-.413.3-.1.64-.154 1.02-.167zM53.54 8.073h1.2V9.42c0 .213.113.32.333.32h4.694c.16 0 .233.107.233.32 0 .46-.147.687-.44.687h-4.82c-.4 0-.7-.074-.9-.227-.2-.147-.3-.407-.3-.78V8.073zm1.327-3.966c.173 0 .333-.027.486-.074a1.4 1.4 0 0 0 .413-.2.997.997 0 0 0 .274-.306.768.768 0 0 0 .1-.394.736.736 0 0 0-.1-.38 1.08 1.08 0 0 0-.273-.306 1.652 1.652 0 0 0-.9-.267c-.374 0-.68.087-.914.267-.233.18-.36.406-.36.68 0 .273.12.52.36.7.24.18.547.273.913.273v.007zm2.613-.06h1.127V1.133h1.2V6.78c0 .46-.054.813-.16 1.06-.107.247-.287.373-.547.373h-.174c-.213 0-.32-.106-.32-.32v-2.84H57.48V4.047zM8.167 4.813h1.46c.873 0 1.306-.74 1.306-2.22V0h-1.58v1.04H8.207V0h-1.58v3.38c0 .953.513 1.433 1.54 1.433zm.04-2.48h1.146v.52c0 .447-.133.667-.393.667h-.273c-.32 0-.474-.16-.474-.48v-.713l-.006.006zM12.133 5.92c0-.32-.113-.48-.34-.48H.34c-.227 0-.34.16-.34.48 0 .633.193.96.593.993H11.54c.393-.033.593-.366.593-.993zM3.307 4.813h1.46c.873 0 1.306-.72 1.306-2.153V0h-1.58v1.04H3.347V0h-1.58v3.313c0 1 .513 1.5 1.54 1.5zm.046-2.48H4.5v.52c0 .447-.133.667-.393.667h-.274c-.32 0-.473-.16-.473-.48v-.713l-.007.006zM9.68 7.707H2.893c-.506 0-.76.253-.76.753v1.12c0 1.62.44 2.427 1.307 2.427h5.693c.874 0 1.307-.807 1.307-2.427V8.46c0-.5-.253-.753-.767-.753h.007zM8.627 9.833c0 .44-.134.667-.394.667H4.34c-.267 0-.393-.227-.393-.667v-.626h4.68v.626z"/>
    </g>
    <defs>
        <clipPath id="yszt3ipqma">
            <path fill="#fff" d="M0 0h60v12H0z"/>
        </clipPath>
    </defs>
</svg>
