<svg xmlns="http://www.w3.org/2000/svg" xmlns:xlink="http://www.w3.org/1999/xlink" width="32" height="32" viewBox="0 0 32 32">
  <defs>
    <style>
      .cls-1 {
        fill: none;
      }

      .cls-2 {
        opacity: 0.5;
      }

      .cls-3 {
        clip-path: url(#clip-path);
      }
    </style>
    <clipPath id="clip-path">
      <rect id="사각형_1374" data-name="사각형 1374" class="cls-1" width="32" height="32" transform="translate(1351 572)"/>
    </clipPath>
  </defs>
  <g id="그룹_1136" data-name="그룹 1136" transform="translate(-1351 -572)">
    <g id="그룹_1131" data-name="그룹 1131" class="cls-2">
      <g id="그룹_1130" data-name="그룹 1130">
        <g id="그룹_1129" data-name="그룹 1129" class="cls-3">
          <rect id="사각형_1373" data-name="사각형 1373" class="cls-1" width="32" height="32" transform="translate(1351 572)"/>
        </g>
      </g>
    </g>
    <path id="패스_447" data-name="패스 447" d="M221,778.05V778c0-3.314-3.134-6-7-6s-7,2.686-7,6v.05a3.484,3.484,0,0,0,0,6.9,3.587,3.587,0,0,0,.5.05h.5v-7c0-2.757,2.692-5,6-5s6,2.243,6,5v7c0,.1-.081,2.529-3.423,3.459A1.5,1.5,0,0,0,215.5,788h-3a1.5,1.5,0,0,0,0,3h3a1.5,1.5,0,0,0,1.5-1.5c0-.042-.009-.081-.012-.122,3.953-1.181,4.012-4.4,4.012-4.428a3.484,3.484,0,0,0,0-6.9Zm-16,3.45a2.5,2.5,0,0,1,2-2.449v4.9A2.5,2.5,0,0,1,205,781.5Zm10.5,8.5h-3a.5.5,0,0,1,0-1h3a.5.5,0,0,1,0,1Zm5.5-6.051v-4.9a2.5,2.5,0,0,1,0,4.9Z" transform="translate(1153 -193)"/>
  </g>
</svg>
