<svg xmlns="http://www.w3.org/2000/svg" width="32" height="32" viewBox="0 0 32 32">
    <defs>
        <clipPath id="c422e3127a">
            <path data-name="사각형 1374" transform="translate(1351 572)" style="fill:none" d="M0 0h32v32H0z"/>
        </clipPath>
    </defs>
    <g data-name="그룹 1136">
        <g data-name="그룹 1131" style="opacity:.5">
            <g data-name="그룹 1130">
                <g data-name="그룹 1129" style="clip-path:url(#c422e3127a)" transform="translate(-1351 -572)">
                    <path data-name="사각형 1373" transform="translate(1351 572)" style="fill:none" d="M0 0h32v32H0z"/>
                </g>
            </g>
        </g>
        <g data-name="그룹 1134" style="opacity:.5">
            <g data-name="그룹 1133">
                <g data-name="그룹 1132" style="clip-path:url(#c422e3127a)" transform="translate(-1351 -572)">
                    <path data-name="사각형 1375" transform="translate(1351 572)" style="fill:none" d="M0 0h32v32H0z"/>
                </g>
            </g>
        </g>
        <g data-name="그룹 1135">
            <path data-name="패스 341" d="M25 9h-3V7h-1v2h-4.5V7h-1v2H11V7h-1v2H6v17h20V9zm0 16H7V10h18z"/>
            <path data-name="사각형 1377" d="M10 15h2v1h-2z"/>
            <path data-name="사각형 1378" d="M20 15h2v1h-2z"/>
            <path data-name="사각형 1379" d="M15 15h2v1h-2z"/>
            <path data-name="사각형 1380" d="M10 19h2v1h-2z"/>
            <path data-name="사각형 1381" d="M20 19h2v1h-2z"/>
            <path data-name="사각형 1382" d="M15 19h2v1h-2z"/>
        </g>
    </g>
</svg>
