<svg width="32" height="32" viewBox="0 0 32 32" fill="none" xmlns="http://www.w3.org/2000/svg">
    <g clip-path="url(#l8a9tckpqa)">
        <g clip-path="url(#mmmmxlx6jb)">
            <path d="M21.36 10c.79-1.23.86-2.64.07-3.43-.38-.39-.9-.57-1.48-.57-.9 0-1.93.44-2.76 1.27-.64.64-1.03 1.39-1.19 2.11-.16-.72-.55-1.47-1.19-2.11C13.98 6.44 12.95 6 12.05 6c-.58 0-1.1.18-1.48.57-.8.8-.72 2.2.07 3.43H6v16h20V10h-4.64zm-4.42-.29c.1-.59.45-1.22.95-1.73.61-.61 1.38-.98 2.05-.98.23 0 .55.05.78.27.49.49.34 1.7-.62 2.73h-3.19c0-.11.01-.21.02-.29h.01zm-5.67-2.44c.23-.23.55-.27.78-.27.67 0 1.44.37 2.05.98.51.51.85 1.14.95 1.73.01.08.02.18.02.29h-3.19c-.95-1.02-1.1-2.24-.62-2.73h.01zM25 16h-3v9h-1v-9H7v-1h14v-4h1v4h3v1z" fill="#000"/>
        </g>
    </g>
    <defs>
        <clipPath id="l8a9tckpqa">
            <path fill="#fff" d="M0 0h32v32H0z"/>
        </clipPath>
        <clipPath id="mmmmxlx6jb">
            <path fill="#fff" transform="translate(6 6)" d="M0 0h20v20H0z"/>
        </clipPath>
    </defs>
</svg>
