<svg xmlns="http://www.w3.org/2000/svg" width="9" height="12" viewBox="0 0 9 12">
    <path data-name="패스 223" d="M5845.65-4664.509a4.369 4.369 0 0 0-4.5 4.235 4.062 4.062 0 0 0 1.153 2.744 13.68 13.68 0 0 1 2.981 4.682c.054.161.136.344.369.338.255-.006.323-.211.384-.385a12.168 12.168 0 0 1 2.715-4.323 4.6 4.6 0 0 0 1.38-2.668 4.332 4.332 0 0 0-4.482-4.623zm1.53 4.275a1.535 1.535 0 0 1-1.537 1.447 1.536 1.536 0 0 1-1.524-1.461 1.536 1.536 0 0 1 1.539-1.446 1.533 1.533 0 0 1 1.522 1.46z" transform="translate(-5841.151 4664.509)" style="fill:#007dfd"/>
</svg>
